<svg width="13" height="13" viewBox="0 0 13 13" fill="none" xmlns="http://www.w3.org/2000/svg">
<g clip-path="url(#clip0_2_89)">
<path d="M6.5 1.35042C8.10302 1.35042 8.29119 1.35757 8.92478 1.38615C9.51073 1.41235 9.82752 1.51001 10.0395 1.59338C10.3206 1.70295 10.5207 1.83157 10.7303 2.04117C10.9399 2.25078 11.0709 2.45086 11.1781 2.73192C11.259 2.94391 11.3591 3.26071 11.3853 3.84665C11.4139 4.48024 11.421 4.66841 11.421 6.27142C11.421 7.87444 11.4139 8.06261 11.3853 8.6962C11.3591 9.28214 11.2614 9.59894 11.1781 9.81092C11.0685 10.092 10.9399 10.2921 10.7303 10.5017C10.5207 10.7113 10.3206 10.8423 10.0395 10.9495C9.82752 11.0305 9.51073 11.1305 8.92478 11.1567C8.29119 11.1853 8.10302 11.1924 6.5 11.1924C4.89699 11.1924 4.70882 11.1853 4.07523 11.1567C3.48928 11.1305 3.17249 11.0328 2.9605 10.9495C2.67944 10.8399 2.47936 10.7113 2.26975 10.5017C2.06014 10.2921 1.92914 10.092 1.82195 9.81092C1.74097 9.59894 1.64093 9.28214 1.61473 8.6962C1.58615 8.06261 1.579 7.87444 1.579 6.27142C1.579 4.66841 1.58615 4.48024 1.61473 3.84665C1.64093 3.26071 1.73859 2.94391 1.82195 2.73192C1.93152 2.45086 2.06014 2.25078 2.26975 2.04117C2.47936 1.83157 2.67944 1.70056 2.9605 1.59338C3.17249 1.51239 3.48928 1.41235 4.07523 1.38615C4.70882 1.35519 4.89937 1.35042 6.5 1.35042ZM6.5 0.269043C4.87079 0.269043 4.66594 0.276189 4.02521 0.304771C3.38686 0.333354 2.95097 0.435776 2.56987 0.583453C2.17448 0.735895 1.84101 0.94312 1.50754 1.27659C1.17408 1.61005 0.969234 1.9459 0.814411 2.33891C0.666733 2.72002 0.564311 3.1559 0.535728 3.79663C0.507146 4.43498 0.5 4.63982 0.5 6.26904C0.5 7.89826 0.507146 8.1031 0.535728 8.74383C0.564311 9.38218 0.666733 9.81807 0.814411 10.2016C0.966852 10.5969 1.17408 10.9304 1.50754 11.2639C1.84101 11.5973 2.17686 11.8022 2.56987 11.957C2.95097 12.1047 3.38686 12.2071 4.02759 12.2357C4.66832 12.2643 4.87079 12.2714 6.50239 12.2714C8.13399 12.2714 8.33645 12.2643 8.97718 12.2357C9.61553 12.2071 10.0514 12.1047 10.4349 11.957C10.8303 11.8046 11.1638 11.5973 11.4972 11.2639C11.8307 10.9304 12.0355 10.5946 12.1904 10.2016C12.338 9.82045 12.4405 9.38456 12.469 8.74383C12.4976 8.1031 12.5048 7.90064 12.5048 6.26904C12.5048 4.63744 12.4976 4.43498 12.469 3.79425C12.4405 3.1559 12.338 2.72002 12.1904 2.33653C12.0379 1.94113 11.8307 1.60767 11.4972 1.2742C11.1638 0.940738 10.8279 0.735895 10.4349 0.581072C10.0538 0.433394 9.61791 0.330972 8.97718 0.30239C8.33407 0.276189 8.12922 0.269043 6.5 0.269043Z" fill="#767676"/>
<path d="M6.5 1.35042C8.10302 1.35042 8.29119 1.35757 8.92478 1.38615C9.51073 1.41235 9.82752 1.51001 10.0395 1.59338C10.3206 1.70295 10.5207 1.83157 10.7303 2.04117C10.9399 2.25078 11.0709 2.45086 11.1781 2.73192C11.259 2.94391 11.3591 3.26071 11.3853 3.84665C11.4139 4.48024 11.421 4.66841 11.421 6.27142C11.421 7.87444 11.4139 8.06261 11.3853 8.6962C11.3591 9.28214 11.2614 9.59894 11.1781 9.81092C11.0685 10.092 10.9399 10.2921 10.7303 10.5017C10.5207 10.7113 10.3206 10.8423 10.0395 10.9495C9.82752 11.0305 9.51073 11.1305 8.92478 11.1567C8.29119 11.1853 8.10302 11.1924 6.5 11.1924C4.89699 11.1924 4.70882 11.1853 4.07523 11.1567C3.48928 11.1305 3.17249 11.0328 2.9605 10.9495C2.67944 10.8399 2.47936 10.7113 2.26975 10.5017C2.06014 10.2921 1.92914 10.092 1.82195 9.81092C1.74097 9.59894 1.64093 9.28214 1.61473 8.6962C1.58615 8.06261 1.579 7.87444 1.579 6.27142C1.579 4.66841 1.58615 4.48024 1.61473 3.84665C1.64093 3.26071 1.73859 2.94391 1.82195 2.73192C1.93152 2.45086 2.06014 2.25078 2.26975 2.04117C2.47936 1.83157 2.67944 1.70056 2.9605 1.59338C3.17249 1.51239 3.48928 1.41235 4.07523 1.38615C4.70882 1.35519 4.89937 1.35042 6.5 1.35042Z" fill="#767676"/>
<path d="M6.4999 3.18925C4.79923 3.18925 3.41772 4.56837 3.41772 6.27143C3.41772 7.97449 4.79684 9.3536 6.4999 9.3536C8.20296 9.3536 9.58208 7.97449 9.58208 6.27143C9.58208 4.56837 8.20296 3.18925 6.4999 3.18925ZM6.4999 8.26984C5.3947 8.26984 4.49911 7.37425 4.49911 6.26905C4.49911 5.16385 5.3947 4.26825 6.4999 4.26825C7.6051 4.26825 8.50069 5.16385 8.50069 6.26905C8.50069 7.37425 7.6051 8.26984 6.4999 8.26984Z" fill="#E8E8E8"/>
<path d="M9.70371 3.78472C10.101 3.78472 10.423 3.46266 10.423 3.06539C10.423 2.66811 10.101 2.34605 9.70371 2.34605C9.30643 2.34605 8.98438 2.66811 8.98438 3.06539C8.98438 3.46266 9.30643 3.78472 9.70371 3.78472Z" fill="#E8E8E8"/>
</g>
<defs>
<clipPath id="clip0_2_89">
<rect width="12" height="12" fill="white" transform="translate(0.5 0.269043)"/>
</clipPath>
</defs>
</svg>
