<?xml version="1.0" encoding="UTF-8"?>
<svg version="1.1" xmlns="http://www.w3.org/2000/svg" width="316" height="352">
<path d="M0 0 C0.04683184 17.78570624 0.08204346 35.57139635 0.10362434 53.35715103 C0.11391344 61.61637693 0.12792825 69.8755644 0.15087891 78.13476562 C0.17088554 85.33797411 0.18373361 92.54115475 0.18817699 99.74439025 C0.19077211 103.55436259 0.19682181 107.36425529 0.21146011 111.17420197 C0.2251593 114.76926682 0.22919806 118.36422015 0.22621536 121.95930862 C0.22701737 123.88931968 0.23771384 125.81931894 0.24884033 127.7492981 C0.22453689 138.15945031 -0.75873206 147.97724621 -4.8125 157.625 C-5.07820801 158.25760742 -5.34391602 158.89021484 -5.61767578 159.54199219 C-6.39442128 161.36880836 -7.19656715 163.18476268 -8 165 C-8.40347656 165.92039063 -8.80695313 166.84078125 -9.22265625 167.7890625 C-18.91943448 188.49743635 -36.18731771 203.01866914 -55.625 214.125 C-56.91012776 214.86736867 -58.19478829 215.61054671 -59.47900391 216.35449219 C-62.07693156 217.85829285 -64.67715493 219.35799654 -67.27929688 220.85449219 C-71.67892213 223.38737803 -76.05687327 225.95681537 -80.43530273 228.52612305 C-90.21823911 234.26296498 -100.06467513 239.87814631 -109.95019531 245.43603516 C-118.67078047 250.35069256 -127.29601331 255.4169323 -135.7734375 260.7421875 C-138 262 -138 262 -140 262 C-139.67 291.7 -139.34 321.4 -139 352 C-142.99792224 351.20041555 -144.77535333 350.78578983 -148.046875 348.84765625 C-148.80073486 348.40591064 -149.55459473 347.96416504 -150.33129883 347.5090332 C-151.12947021 347.03167725 -151.9276416 346.55432129 -152.75 346.0625 C-154.0042981 345.32422974 -154.0042981 345.32422974 -155.28393555 344.57104492 C-157.85969498 343.05359035 -160.42992303 341.52705365 -163 340 C-165.22977375 338.68456015 -167.46105113 337.37170589 -169.69262695 336.05932617 C-171.11222078 335.22437677 -172.531325 334.3885944 -173.94995117 333.55200195 C-179.25250596 330.42751368 -184.59158977 327.3710264 -189.94140625 324.328125 C-195.31630223 321.25675587 -200.65530988 318.12351487 -206 315 C-212.31890365 311.30749182 -218.63790679 307.61766085 -225 304 C-233.39418662 299.22382056 -241.72891413 294.34580371 -250.0625 289.46484375 C-253.67483316 287.35051879 -257.29634864 285.25567513 -260.9375 283.19140625 C-269.26843478 278.44421527 -276.87468614 273.49118399 -284 267 C-284.77601563 266.30519531 -285.55203125 265.61039062 -286.3515625 264.89453125 C-296.61218883 255.21569301 -304.16540703 242.90265143 -309.5625 229.9375 C-309.99852539 228.94459961 -309.99852539 228.94459961 -310.44335938 227.93164062 C-315.18464214 216.57165441 -316.44673941 204.94847484 -316.34057617 192.74267578 C-316.33972708 191.38102233 -316.34021053 190.01936751 -316.34190369 188.65771484 C-316.34275407 185.00977523 -316.32528628 181.36213986 -316.30418181 177.71427011 C-316.28525274 173.8839824 -316.28365193 170.05368543 -316.28010559 166.22335815 C-316.27083228 158.9918176 -316.24628336 151.76041535 -316.21605712 144.52893531 C-316.18236507 136.2869491 -316.16599013 128.04495581 -316.15097082 119.80291772 C-316.11972878 102.86853222 -316.06706149 85.9342808 -316 69 C-306.40143278 72.76840184 -297.61709533 78.34311482 -288.75 83.5625 C-279.65211602 88.89510564 -270.5056739 94.13174796 -261.31567383 99.30371094 C-253.6034354 103.64762241 -245.93841326 108.06884833 -238.28515625 112.515625 C-234.49302158 114.71810623 -230.6868025 116.89423919 -226.875 119.0625 C-219.69728951 123.15694455 -212.5769224 127.34543133 -205.46289062 131.54931641 C-202.71363194 133.16867556 -199.95855178 134.77787879 -197.203125 136.38671875 C-195.2187146 137.54941874 -193.23433922 138.71217853 -191.25 139.875 C-190.30898437 140.42244873 -189.36796875 140.96989746 -188.3984375 141.53393555 C-184.01391232 144.10944694 -179.85273938 146.64908802 -176 150 C-175.92072266 149.42781738 -175.84144531 148.85563477 -175.75976562 148.26611328 C-173.02578712 129.35106033 -167.68700139 113.3522796 -156 98 C-155.59942383 97.47067871 -155.19884766 96.94135742 -154.78613281 96.39599609 C-143.22335937 81.33082413 -128.23484265 72.36557444 -112 63 C-111.10055664 62.48083008 -110.20111328 61.96166016 -109.27441406 61.42675781 C-103.96663734 58.37019092 -98.6461608 55.33644747 -93.31835938 52.31494141 C-78.54075444 43.93328806 -63.84164041 35.4163055 -49.17382812 26.84423828 C-39.5211466 21.2032013 -29.85032075 15.59820645 -20.12548828 10.08227539 C-19.33384277 9.63231201 -18.54219727 9.18234863 -17.7265625 8.71875 C-16.95731445 8.28175781 -16.18806641 7.84476562 -15.39550781 7.39453125 C-11.93146836 5.37796038 -8.53487833 3.25310629 -5.14208984 1.11914062 C-3 0 -3 0 0 0 Z M-44.25 66.25 C-50.82003402 70.14490686 -57.42353948 73.97384335 -64.0625 77.75 C-74.7933106 83.85978227 -85.46159098 90.07480043 -96.11645508 96.31591797 C-98.14735393 97.50202755 -100.18133834 98.68286179 -102.2175293 99.85986328 C-103.80368042 100.77807861 -103.80368042 100.77807861 -105.421875 101.71484375 C-106.37803711 102.26648193 -107.33419922 102.81812012 -108.31933594 103.38647461 C-122.3830413 111.85159562 -132.27859006 124.74123784 -137.0625 140.5 C-139.63704337 151.19425709 -140.14068481 161.38183559 -140.09765625 172.34375 C-140.09578788 173.72237089 -140.09436596 175.10099246 -140.09336853 176.47961426 C-140.08957635 180.083149 -140.07977478 183.68664252 -140.06866455 187.29016113 C-140.05837896 190.97728925 -140.05385569 194.66442412 -140.04882812 198.3515625 C-140.03814909 205.56772699 -140.02111299 212.78385769 -140 220 C-138.23730862 219.04016793 -136.47481385 218.07997479 -134.71240234 217.11962891 C-133.73089203 216.58496002 -132.74938171 216.05029114 -131.73812866 215.49942017 C-128.68041673 213.82499376 -125.64741683 212.11229471 -122.625 210.375 C-121.42715311 209.68737844 -120.2292315 208.99988702 -119.03125 208.3125 C-118.38929688 207.94382813 -117.74734375 207.57515625 -117.0859375 207.1953125 C-114.82005783 205.89688707 -112.55094001 204.60425283 -110.28125 203.3125 C-100.62175302 197.81231472 -90.98500931 192.27373924 -81.375 186.6875 C-79.91924561 185.84421143 -79.91924561 185.84421143 -78.43408203 184.98388672 C-59.57589041 173.99485992 -43.71996356 162.17596317 -37.44615173 140.04641724 C-35.60394158 131.98086192 -35.74615715 123.93194258 -35.8046875 115.7109375 C-35.80842526 114.15581445 -35.81126862 112.60068901 -35.81326294 111.04556274 C-35.82083936 106.98497833 -35.84043516 102.92454073 -35.8626709 98.86401367 C-35.88325961 94.70753972 -35.8922923 90.55104167 -35.90234375 86.39453125 C-35.92368772 78.26295403 -35.95774976 70.13149536 -36 62 C-38.64744642 62 -41.9487678 64.87629872 -44.25 66.25 Z M-280 131 C-280.09330033 139.88500547 -280.16406578 148.76983841 -280.20724869 157.65522957 C-280.22799013 161.782538 -280.25605654 165.90950759 -280.30175781 170.03662109 C-280.34570234 174.03077323 -280.36923773 178.02460261 -280.37950897 182.01897812 C-280.38681431 183.53139186 -280.40107558 185.04379098 -280.42292023 186.55606461 C-280.68245278 205.29419027 -275.61398086 222.71496148 -262.50390625 236.62109375 C-261.67761719 237.40613281 -260.85132813 238.19117188 -260 239 C-259.43176514 239.54060059 -258.86353027 240.08120117 -258.27807617 240.63818359 C-253.30932025 245.19323941 -248.08556865 248.52282785 -242.1875 251.75 C-240.33040002 252.7884741 -238.47363659 253.82755027 -236.6171875 254.8671875 C-235.68358398 255.38635742 -234.74998047 255.90552734 -233.78808594 256.44042969 C-229.43710817 258.87423407 -225.12417648 261.37242767 -220.8125 263.875 C-219.70201294 264.51646973 -219.70201294 264.51646973 -218.5690918 265.17089844 C-214.75579434 267.37830404 -210.96607557 269.61908724 -207.1953125 271.8984375 C-201.54832244 275.29677094 -195.81024258 278.52592776 -190.0625 281.75 C-188.03195109 282.88955476 -186.00197615 284.03013305 -183.97265625 285.171875 C-183.08843994 285.6678418 -182.20422363 286.16380859 -181.29321289 286.67480469 C-179.48911577 287.71735118 -177.73371603 288.84418931 -176 290 C-175.90662205 281.26265034 -175.83589591 272.52547689 -175.79275131 263.78773403 C-175.77202633 259.72883198 -175.74399147 255.67027551 -175.69824219 251.61157227 C-175.65423708 247.68225353 -175.63075003 243.75326357 -175.62049103 239.82371712 C-175.61319623 238.33724872 -175.59895694 236.85079483 -175.57707977 235.36446953 C-175.32608299 217.57680428 -179.41330731 200.28666476 -191.4375 186.5625 C-192.93815907 185.02175654 -194.45763602 183.49899346 -196 182 C-196.57878906 181.40058594 -197.15757812 180.80117187 -197.75390625 180.18359375 C-204.44306967 173.73386347 -212.97672427 169.54445219 -221 165 C-222.72568702 164.01506998 -224.45093752 163.02937481 -226.17578125 162.04296875 C-228.84440184 160.5172353 -231.5134665 158.99232988 -234.18457031 157.47094727 C-240.49445122 153.87463909 -246.76466352 150.21607876 -253.01708984 146.52099609 C-259.63910924 142.61138128 -266.31409717 138.79918548 -273 135 C-275.33387022 133.66760495 -277.6668568 132.33366811 -280 131 Z " fill="#4A8B71" transform="translate(316,0)"/>
</svg>
