<svg width="13" height="13" viewBox="0 0 13 13" fill="none" xmlns="http://www.w3.org/2000/svg">
<g clip-path="url(#clip0_2_87)">
<path d="M11.0286 3.85942C11.0332 3.96502 11.0332 4.06582 11.0332 4.17142C11.0378 7.37303 8.68559 11.069 4.38396 11.069C3.11524 11.069 1.86967 10.6898 0.800049 9.97944C0.985264 10.0034 1.17048 10.013 1.35569 10.013C2.40679 10.013 3.43011 9.64823 4.25894 8.97143C3.25878 8.95223 2.37901 8.27543 2.0734 7.28663C2.42531 7.35863 2.78648 7.34423 3.12913 7.24343C2.04099 7.02263 1.25846 6.02902 1.25383 4.87222C1.25383 4.86262 1.25383 4.85302 1.25383 4.84342C1.57795 5.03062 1.94375 5.13622 2.31418 5.14582C1.29087 4.43542 0.971373 3.01941 1.59184 1.91061C2.78185 3.42742 4.53214 4.34422 6.41207 4.44502C6.22223 3.60502 6.48153 2.72181 7.08811 2.12661C8.02807 1.20981 9.5098 1.25781 10.3988 2.23221C10.9221 2.12661 11.4268 1.92501 11.8852 1.64181C11.7092 2.20341 11.3434 2.67861 10.8572 2.98101C11.3203 2.92341 11.7741 2.79381 12.2 2.60181C11.8852 3.09141 11.487 3.51382 11.0286 3.85942Z" fill="#767676"/>
</g>
<defs>
<clipPath id="clip0_2_87">
<rect width="12" height="12" fill="white" transform="translate(0.5 0.269043)"/>
</clipPath>
</defs>
</svg>
