<svg width="13" height="13" viewBox="0 0 13 13" fill="none" xmlns="http://www.w3.org/2000/svg">
<g clip-path="url(#clip0_2_91)">
<path d="M12.2528 3.3837C12.1144 2.8697 11.7092 2.46443 11.1952 2.32605C10.2561 2.06905 6.49997 2.06905 6.49997 2.06905C6.49997 2.06905 2.74381 2.06905 1.80477 2.31616C1.30066 2.45455 0.885501 2.8697 0.747116 3.3837C0.5 4.32274 0.5 6.27002 0.5 6.27002C0.5 6.27002 0.5 8.22717 0.747116 9.15633C0.885501 9.67033 1.29077 10.0756 1.80477 10.214C2.7537 10.471 6.49997 10.471 6.49997 10.471C6.49997 10.471 10.2561 10.471 11.1952 10.2239C11.7092 10.0855 12.1144 9.68022 12.2528 9.16621C12.4999 8.22717 12.4999 6.2799 12.4999 6.2799C12.4999 6.2799 12.5098 4.32274 12.2528 3.3837Z" fill="#767676"/>
<path d="M5.30396 8.06902L8.4275 6.27001L5.30396 4.47101V8.06902Z" fill="#E8E8E8"/>
</g>
<defs>
<clipPath id="clip0_2_91">
<rect width="12" height="12" fill="white" transform="translate(0.5 0.269043)"/>
</clipPath>
</defs>
</svg>
